HIERARCHY
ROOT Hips
{
	OFFSET -0.001795 -0.223333 0.028219
	CHANNELS 6 Xposition Yposition Zposition Zrotation Yrotation Xrotation 
	JOINT LeftUpLeg
	{
		OFFSET 0.069520 -0.091406 -0.006815
		CHANNELS 3 Zrotation Yrotation Xrotation
		JOINT LeftLeg
		{
			OFFSET 0.034277 -0.375199 -0.004496
			CHANNELS 3 Zrotation Yrotation Xrotation
			JOINT LeftFoot
			{
				OFFSET -0.013596 -0.397961 -0.043693
				CHANNELS 3 Zrotation Yrotation Xrotation
				JOINT LeftToe
				{
					OFFSET 0.026358 -0.055791 0.119288
					CHANNELS 3 Zrotation Yrotation Xrotation
					End Site
					{
						OFFSET 0.000000 0.000000 0.000000
					}
				}
			}
		}
	}
	JOINT RightUpLeg
	{
		OFFSET -0.067670 -0.090522 -0.004320
		CHANNELS 3 Zrotation Yrotation Xrotation
		JOINT RightLeg
		{
			OFFSET -0.038290 -0.382569 -0.008850
			CHANNELS 3 Zrotation Yrotation Xrotation
			JOINT RightFoot
			{
				OFFSET 0.015774 -0.398415 -0.042312
				CHANNELS 3 Zrotation Yrotation Xrotation
				JOINT RightToe
				{
					OFFSET -0.025372 -0.048144 0.123348
					CHANNELS 3 Zrotation Yrotation Xrotation
					End Site
					{
						OFFSET 0.000000 0.000000 0.000000
					}
				}
			}
		}
	}
	JOINT Spine
	{
		OFFSET -0.002533 0.108963 -0.026696
		CHANNELS 3 Zrotation Yrotation Xrotation
		JOINT Spine1
		{
			OFFSET 0.005487 0.135180 0.001092
			CHANNELS 3 Zrotation Yrotation Xrotation
			JOINT Spine2
			{
				OFFSET 0.001457 0.052922 0.025425
				CHANNELS 3 Zrotation Yrotation Xrotation
				JOINT Neck
				{
					OFFSET -0.002778 0.213870 -0.042857
					CHANNELS 3 Zrotation Yrotation Xrotation
					JOINT Head
					{
						OFFSET 0.005152 0.064970 0.051349
						CHANNELS 3 Zrotation Yrotation Xrotation
						End Site
						{
							OFFSET 0.000000 0.000000 0.000000
						}
					}
				}
				JOINT LeftShoulder
				{
					OFFSET 0.078845 0.121749 -0.034090
					CHANNELS 3 Zrotation Yrotation Xrotation
					JOINT LeftArm
					{
						OFFSET 0.090977 0.030469 -0.008868
						CHANNELS 3 Zrotation Yrotation Xrotation
						JOINT LeftForeArm
						{
							OFFSET 0.259612 -0.012772 -0.027456
							CHANNELS 3 Zrotation Yrotation Xrotation
							JOINT LeftHand
							{
								OFFSET 0.249234 0.008986 -0.001171
								CHANNELS 3 Zrotation Yrotation Xrotation
								End Site
								{
									OFFSET 0.000000 0.000000 0.000000
								}
							}
						}
					}
				}
				JOINT RightShoulder
				{
					OFFSET -0.081759 0.118833 -0.038615
					CHANNELS 3 Zrotation Yrotation Xrotation
					JOINT RightArm
					{
						OFFSET -0.096012 0.032551 -0.009143
						CHANNELS 3 Zrotation Yrotation Xrotation
						JOINT RightForeArm
						{
							OFFSET -0.253742 -0.013329 -0.021401
							CHANNELS 3 Zrotation Yrotation Xrotation
							JOINT RightHand
							{
								OFFSET -0.255298 0.007772 -0.005559
								CHANNELS 3 Zrotation Yrotation Xrotation
								End Site
								{
									OFFSET 0.000000 0.000000 0.000000
								}
							}
						}
					}
				}
			}
		}
	}
}
MOTION
Frames: 7
Frame Time: 0.050000
0.000000 0.895316 0.000000 -5.108424 -14.117220 -0.632534 -1.460776 -1.391257 -15.679204 -1.665940 1.328268 31.717755 6.058992 12.445853 -10.901968 0.000000 0.000000 0.000000 -15.987514 0.947167 -33.057492 23.583874 -8.117517 53.567970 -10.584471 -25.265763 10.599804 0.000000 0.000000 0.000000 1.669246 -0.449576 9.930360 5.706316 -2.044959 -11.305492 10.482500 -4.114953 12.767816 -10.906142 5.810658 -24.657846 0.000000 0.000000 0.000000 27.743909 4.548727 -2.275750 16.757672 -25.704643 -1.818033 12.738276 -7.952186 -0.121144 0.000000 0.000000 0.000000 13.324071 -0.180981 -3.727194 45.776933 -2.965873 -5.344692 26.601669 39.303438 8.140431 0.000000 0.000000 0.000000 
0.006915 0.905380 -0.022956 -6.339077 -7.925985 0.662118 -1.815620 -1.499996 -15.200989 1.838418 -0.949826 26.123850 4.513391 7.305951 -11.189629 0.000000 0.000000 0.000000 -18.407710 -0.467608 -35.336017 28.855458 -14.122211 55.498926 -11.656403 -26.221745 14.856124 0.000000 0.000000 0.000000 1.490598 -0.425197 8.177633 8.781547 -3.312855 -8.319964 8.919847 -5.718984 8.780353 -10.278223 5.718766 -23.525274 0.000000 0.000000 0.000000 31.948547 5.429106 -1.333874 18.978615 -27.783579 -2.602935 6.581767 -4.421876 0.078699 0.000000 0.000000 0.000000 12.977639 -1.947138 -4.012987 45.238145 -0.956470 -4.500403 27.992192 33.179712 7.448671 0.000000 0.000000 0.000000 
0.010913 0.916200 -0.048171 -6.366082 -5.911900 -0.503617 -0.818218 -1.263874 -13.554035 1.531836 -0.982988 24.395288 2.955400 3.841143 -8.007119 0.000000 0.000000 0.000000 -16.627165 -0.460921 -43.254758 29.155021 -17.933853 65.029873 -14.688813 -30.720280 15.248044 0.000000 0.000000 0.000000 3.389242 -0.722338 10.577091 5.693960 -2.133169 -8.118171 9.988079 -6.100319 9.427460 -13.152802 7.695937 -21.377085 0.000000 0.000000 0.000000 31.925817 3.508928 -1.086916 23.484280 -24.649655 -2.302304 4.733468 -1.481669 0.082681 0.000000 0.000000 0.000000 8.261294 -2.093237 -2.704214 47.764269 -0.952136 -5.310919 33.792763 40.163260 11.319602 0.000000 0.000000 0.000000 
0.011627 0.924109 -0.074028 -5.443142 -3.431385 0.085022 -1.958232 -1.612693 -15.486735 1.369220 -1.063123 23.203889 2.364384 3.118330 -5.387006 0.000000 0.000000 0.000000 -15.256249 -0.508386 -45.651090 25.982649 -18.012952 70.246887 -11.193101 -25.216434 13.932042 0.000000 0.000000 0.000000 1.986273 -0.662533 11.492406 6.304970 -2.258441 -8.961515 9.932247 -5.914757 8.246235 -14.480419 8.122590 -24.991126 0.000000 0.000000 0.000000 34.621683 5.308159 -0.580317 25.731471 -25.642082 -2.866873 1.332948 -0.196130 0.023643 0.000000 0.000000 0.000000 5.904719 -2.645623 -2.225181 49.011944 -0.715905 -5.453877 36.753164 39.295978 12.289689 0.000000 0.000000 0.000000 
0.010047 0.926463 -0.099310 -4.194793 -0.105439 0.148049 -2.708889 -1.803036 -15.943393 0.280638 -0.861640 21.683068 2.211507 2.925176 -4.419207 0.000000 0.000000 0.000000 -11.632024 0.169789 -45.590734 20.762214 -16.431649 76.278916 -9.203487 -21.933252 9.556362 0.000000 0.000000 0.000000 1.287610 -0.704614 13.006302 6.397142 -2.102228 -10.542051 9.792538 -6.027461 8.832798 -14.726478 8.203452 -27.189372 0.000000 0.000000 0.000000 35.728741 7.598123 -0.154740 27.477557 -24.677587 -2.964279 0.664812 -0.803089 0.034894 0.000000 0.000000 0.000000 3.001399 -4.637409 -2.193061 51.576654 -0.066102 -5.817516 42.032147 41.481599 15.606472 0.000000 0.000000 0.000000 
0.006824 0.924375 -0.122739 -2.046440 2.723574 1.337466 -4.987634 -2.500702 -18.609559 -0.282175 -0.831959 21.475998 1.642642 2.019655 -3.237432 0.000000 0.000000 0.000000 -8.330798 0.903272 -42.599801 12.513119 -10.647432 81.449850 -2.054810 -8.186989 9.345861 0.000000 0.000000 0.000000 -0.740283 -0.475603 12.691808 6.353996 -1.987502 -10.956450 10.431680 -5.346615 9.080593 -16.444729 9.093655 -28.809200 0.000000 0.000000 0.000000 34.598201 10.909499 0.210880 29.205703 -24.078689 -3.297397 4.429618 -0.390454 0.049259 0.000000 0.000000 0.000000 0.943211 -5.218486 -1.937962 53.471582 -0.572880 -6.326954 46.054383 43.717034 18.996451 0.000000 0.000000 0.000000 
0.001097 0.918322 -0.144711 -0.025291 6.893927 2.240492 -6.542075 -3.163392 -20.692558 -1.084821 -0.812445 21.334973 0.965228 0.359123 -3.122894 0.000000 0.000000 0.000000 -5.139542 1.306672 -36.351543 5.158620 -5.317823 81.728673 2.563893 0.291350 11.354898 0.000000 0.000000 0.000000 -3.096843 -0.196015 11.292127 6.422908 -1.935148 -10.908446 9.739917 -4.095334 9.484669 -16.965879 10.083590 -26.093672 0.000000 0.000000 0.000000 34.576380 12.060409 1.220586 32.866727 -21.415357 -3.328960 8.092552 0.540114 0.072629 0.000000 0.000000 0.000000 1.274780 -5.771683 -2.181095 53.596009 -0.756560 -6.169842 46.842790 43.229207 20.269437 0.000000 0.000000 0.000000 
